{"accessors" : [{"bufferView" : 0, "byteOffset" : 0, "componentType" : 5123, "count" : 14760, "type" : "SCALAR", "max" : [13299], "min" : [0]}, {"bufferView" : 1, "byteOffset" : 0, "componentType" : 5126, "count" : 13300, "type" : "VEC3", "max" : [5.839035511016846, 0.18000000715255737, 0.2499999850988388], "min" : [0.019916405901312828, -0.18000000715255737, -0.7110123634338379], "name" : "POSITION"}, {"bufferView" : 1, "byteOffset" : 12, "componentType" : 5126, "count" : 13300, "type" : "VEC3", "max" : [1.0000032186508179, 1.0000044107437134, 1.0000040531158447], "min" : [-1.0000042915344238, -1.0000044107437134, -1.000002384185791], "name" : "NORMAL"}, {"bufferView" : 1, "byteOffset" : 24, "componentType" : 5126, "count" : 13300, "type" : "VEC2", "max" : [1, 1], "min" : [0, 0], "name" : "TEXCOORD_0"}], "asset" : {"generator" : "Aspose.3D 22.1", "version" : "2.0"}, "buffers" : [{"uri" : "data:application/octet-stream;base64,", "byteLength" : 501848}], "bufferViews" : [{"buffer" : 0, "byteOffset" : 0, "byteLength" : 29520, "target" : 34963}, {"buffer" : 0, "byteOffset" : 29524, "byteLength" : 472320, "byteStride" : 32, "target" : 34962}], "materials" : [{"name" : "Material.001", "pbrMetallicRoughness" : {"baseColorFactor" : [0.009721189737319946, 0.18116429448127747, 0.6444798111915588, 1], "metallicFactor" : 0.23711340129375458, "roughnessFactor" : 0.8556700944900513}, "emissiveFactor" : [0, 0, 0], "alphaMode" : "OPAQUE", "doubleSided" : true}], "meshes" : [{"primitives" : [{"attributes" : {"POSITION" : 1, "NORMAL" : 2, "TEXCOORD_0" : 3}, "indices" : 0, "material" : 0, "mode" : 4}]}], "nodes" : [{"matrix" : [1, 0, 0, 0, 0, -0.06392101845279541, 0.9979550594791604, 0, 0, -0.9979550594791604, -0.06392101845279541, 0, 0, 0, 0, 1], "mesh" : 0, "name" : "Text"}], "scene" : 0, "scenes" : [{"nodes" : [0]}]}